<svg xmlns="http://www.w3.org/2000/svg" viewBox="0 0 50 50">
  <path d="M24.625 2.03125C19.472656 2.113281 14.289063 3.894531 10.0625 7.5C4.941406 11.867188 2.003906 18.269531 2 25C2 25.671875 1.992188 26.355469 2.09375 27.09375L2.1875 28L8.21875 28L8.125 26.875C7.113281 17.539063 13.851563 9.164063 23.1875 8.15625C28.925781 7.535156 34.582031 9.890625 38.21875 14.375L33.59375 19L47 19L47 5.59375L42.5 10.09375C37.863281 4.65625 31.25 1.925781 24.625 2.03125 Z M 41.78125 22L41.875 23.125C42.886719 32.460938 36.148438 40.835938 26.8125 41.84375C21.074219 42.464844 15.417969 40.109375 11.78125 35.625L16.40625 31L3 31L3 44.40625L7.5 39.90625C15.742188 49.570313 30.273438 50.742188 39.9375 42.5C45.058594 38.132813 47.996094 31.730469 48 25C48 24.328125 48.007813 23.644531 47.90625 22.90625L47.8125 22Z" fill="#E1AFF5" />
</svg>